<svg version="1.1" xmlns="http://www.w3.org/2000/svg" viewBox="0 0 1970.0423475446182 661.4070916710198"
  width="1970.0423475446182" height="661.4070916710198" filter="invert(93%) hue-rotate(180deg)">
  <!-- svg-source:excalidraw -->

  <defs>
    <style class="style-fonts">
      @font-face {
        font-family: "Virgil";
        src: url("https://excalidraw.com/Virgil.woff2");
      }

      @font-face {
        font-family: "Cascadia";
        src: url("https://excalidraw.com/Cascadia.woff2");
      }
    </style>
  </defs>
  <g stroke-linecap="round"
    transform="translate(186.8042807069968 126.51592594228205) rotate(0 145.46621704101562 261.1705627441406)">
    <path
      d="M32 0 M32 0 C91.55 -0.38, 151.6 -1.28, 258.93 0 M32 0 C118.03 0.45, 202.22 -0.49, 258.93 0 M258.93 0 C279.31 -0.62, 288.99 8.76, 290.93 32 M258.93 0 C281.4 2.05, 288.91 11.54, 290.93 32 M290.93 32 C289.07 203.13, 290.74 372.7, 290.93 490.34 M290.93 32 C290.74 164.32, 290.47 296.52, 290.93 490.34 M290.93 490.34 C290.63 511, 280.5 524.12, 258.93 522.34 M290.93 490.34 C289.88 510.52, 280.06 522.12, 258.93 522.34 M258.93 522.34 C209.76 519.5, 157.73 520.43, 32 522.34 M258.93 522.34 C206.45 524.28, 153.16 523.66, 32 522.34 M32 522.34 C9.73 520.92, 0.78 511.05, 0 490.34 M32 522.34 C12.05 522.32, -2.2 511.29, 0 490.34 M0 490.34 C-0.36 380.76, -1.51 270.79, 0 32 M0 490.34 C-1.56 371.24, -1.77 251.49, 0 32 M0 32 C0.98 9, 12.31 -1.59, 32 0 M0 32 C1.17 10.57, 8.55 -1.75, 32 0"
      stroke="#58a6ff" stroke-width="1" fill="none"></path>
  </g>
  <g stroke-linecap="round">
    <g transform="translate(9.409405175969027 259.22017150500415) rotate(0 81.21896727271377 -0.9312097878271288)">
      <path d="M0.59 -1 C27.65 -1.12, 135.03 -1, 161.85 -0.82" stroke="#58a6ff" stroke-width="1.5" fill="none"
        stroke-dasharray="8 9"></path>
    </g>
  </g>
  <mask></mask>
  <g stroke-linecap="round">
    <g transform="translate(9.713081946224008 497.1548602967375) rotate(0 81.1155344646424 0.6874825973063707)">
      <path d="M0.84 0.59 C27.71 0.72, 134.52 0.77, 161.39 0.79" stroke="#58a6ff" stroke-width="1.5" fill="none"
        stroke-dasharray="8 9"></path>
    </g>
  </g>
  <mask></mask>
  <g transform="translate(47.17429775409403 202.13655334094167) rotate(0 41.72996520996094 12)"><text x="0" y="0"
      font-family="Virgil, Segoe UI Emoji" font-size="20px" fill="#58a6ff" text-anchor="start" style="white-space: pre;"
      direction="ltr" dominant-baseline="text-before-edge">Frontend</text></g>
  <g transform="translate(49.66538662128153 372.30525451281665) rotate(0 39.65997314453125 12)"><text x="0" y="0"
      font-family="Virgil, Segoe UI Emoji" font-size="20px" fill="#58a6ff" text-anchor="start" style="white-space: pre;"
      direction="ltr" dominant-baseline="text-before-edge">Backend</text></g>
  <g transform="translate(40.69437832050028 578.1678033409416) rotate(0 49.439964294433594 12)"><text x="0" y="0"
      font-family="Virgil, Segoe UI Emoji" font-size="20px" fill="#58a6ff" text-anchor="start" style="white-space: pre;"
      direction="ltr" dominant-baseline="text-before-edge">Database</text></g>
  <g transform="translate(291.864483300969 141.67738586047292) rotate(0 38.81996154785156 12)"><text x="0" y="0"
      font-family="Virgil, Segoe UI Emoji" font-size="20px" fill="#58a6ff" text-anchor="start" style="white-space: pre;"
      direction="ltr" dominant-baseline="text-before-edge">Monolith</text></g>
  <g stroke-linecap="round"
    transform="translate(217.89231533221903 193.44768004992605) rotate(0 116.9154052734375 211.13609313964844)">
    <path
      d="M32 0 M32 0 C70 3.51, 110.19 3.27, 201.83 0 M201.83 0 C222.57 -0.85, 232.94 12.61, 233.83 32 M233.83 32 C234.95 172.28, 233.89 315.71, 233.83 390.27 M233.83 390.27 C234.19 411.24, 221.72 420.66, 201.83 422.27 M201.83 422.27 C155.02 422.38, 110.9 419.74, 32 422.27 M32 422.27 C11.17 422.67, -0.95 411.43, 0 390.27 M0 390.27 C-0.91 273.06, -2.28 158.44, 0 32 M0 32 C0.06 9.3, 11.09 -1.2, 32 0"
      stroke="#58a6ff" stroke-width="1.5" fill="none" stroke-dasharray="8 9"></path>
  </g>
  <g transform="translate(274.4659847658128 376.5217462120354) rotate(0 60.19994354248047 12)"><text x="0" y="0"
      font-family="Virgil, Segoe UI Emoji" font-size="20px" fill="#58a6ff" text-anchor="start" style="white-space: pre;"
      direction="ltr" dominant-baseline="text-before-edge">The Website</text></g>
  <g stroke-linecap="round"
    transform="translate(682.2235743166879 122.67253356555105) rotate(0 145.46621704101562 261.1705627441406)">
    <path
      d="M32 0 M32 0 C121.02 -0.38, 210.36 -0.87, 258.93 0 M32 0 C101.06 -0.81, 169.09 -0.89, 258.93 0 M258.93 0 C281.87 0.68, 291 10.61, 290.93 32 M258.93 0 C278.93 1.14, 292.66 9.32, 290.93 32 M290.93 32 C291.79 148.71, 290.19 264.82, 290.93 490.34 M290.93 32 C290.88 155.96, 291.17 280.19, 290.93 490.34 M290.93 490.34 C289.52 510.9, 279.21 520.43, 258.93 522.34 M290.93 490.34 C289.47 512.16, 279.63 521.18, 258.93 522.34 M258.93 522.34 C178.78 521.61, 95.5 519.5, 32 522.34 M258.93 522.34 C195.78 521.33, 132.39 522.33, 32 522.34 M32 522.34 C8.71 520.56, 1.2 512.59, 0 490.34 M32 522.34 C11.97 522.09, -1.94 513.14, 0 490.34 M0 490.34 C-1.49 329.29, -0.23 170.14, 0 32 M0 490.34 C-2.16 337.01, -1.97 184.13, 0 32 M0 32 C-0.77 9.75, 9.58 1.44, 32 0 M0 32 C0.74 11.79, 9.38 -0.26, 32 0"
      stroke="#58a6ff" stroke-width="1" fill="none"></path>
  </g>
  <g stroke-linecap="round">
    <g transform="translate(505.19317880887536 255.74125915148855) rotate(0 79.9956997554749 0.3462363738566694)">
      <path d="M-0.36 0.45 C26.55 0.39, 133.48 0.39, 160.36 0.24" stroke="#58a6ff" stroke-width="1.5" fill="none"
        stroke-dasharray="8 9"></path>
    </g>
  </g>
  <mask></mask>
  <g stroke-linecap="round">
    <g transform="translate(505.49685557913006 493.6759479432219) rotate(0 80.71067729182539 -0.17310645170510952)">
      <path d="M0.45 -0.51 C27.17 -0.42, 134.33 0.04, 160.97 0.16" stroke="#58a6ff" stroke-width="1.5" fill="none"
        stroke-dasharray="8 9"></path>
    </g>
  </g>
  <mask></mask>
  <g transform="translate(542.9580713870004 198.65764098742605) rotate(0 41.72996520996094 12)"><text x="0" y="0"
      font-family="Virgil, Segoe UI Emoji" font-size="20px" fill="#58a6ff" text-anchor="start" style="white-space: pre;"
      direction="ltr" dominant-baseline="text-before-edge">Frontend</text></g>
  <g transform="translate(545.4491602541879 368.826342159301) rotate(0 39.65997314453125 12)"><text x="0" y="0"
      font-family="Virgil, Segoe UI Emoji" font-size="20px" fill="#58a6ff" text-anchor="start" style="white-space: pre;"
      direction="ltr" dominant-baseline="text-before-edge">Backend</text></g>
  <g transform="translate(536.4781519534066 574.688890987426) rotate(0 49.439964294433594 12)"><text x="0" y="0"
      font-family="Virgil, Segoe UI Emoji" font-size="20px" fill="#58a6ff" text-anchor="start" style="white-space: pre;"
      direction="ltr" dominant-baseline="text-before-edge">Database</text></g>
  <g transform="translate(725.2199122073129 142.2176385460198) rotate(0 108.41992950439453 12)"><text x="0" y="0"
      font-family="Virgil, Segoe UI Emoji" font-size="20px" fill="#58a6ff" text-anchor="start" style="white-space: pre;"
      direction="ltr" dominant-baseline="text-before-edge">Frontend and Backend</text></g>
  <g stroke-linecap="round"
    transform="translate(713.6760889651254 189.96876769641042) rotate(0 116.9154052734375 43.02848734906007)">
    <path
      d="M21.51 0 M21.51 0 C80.27 -1.68, 136.6 -1.87, 212.32 0 M212.32 0 C228.26 0.68, 233.9 7.12, 233.83 21.51 M233.83 21.51 C232.87 31.02, 234.01 42.02, 233.83 64.54 M233.83 64.54 C235.73 78.77, 225.14 84.54, 212.32 86.06 M212.32 86.06 C160.62 84.67, 110.14 84.72, 21.51 86.06 M21.51 86.06 C5.76 85.28, -1.06 76.97, 0 64.54 M0 64.54 C-1.1 55.57, 1.8 42.55, 0 21.51 M0 21.51 C1.97 8.17, 7.47 -1.47, 21.51 0"
      stroke="#58a6ff" stroke-width="1.5" fill="none" stroke-dasharray="8 9"></path>
  </g>
  <g transform="translate(787.3607841028714 220.41662382414145) rotate(0 41.72996520996094 12)"><text x="0" y="0"
      font-family="Virgil, Segoe UI Emoji" font-size="20px" fill="#58a6ff" text-anchor="start" style="white-space: pre;"
      direction="ltr" dominant-baseline="text-before-edge">Frontend</text></g>
  <g stroke-linecap="round"
    transform="translate(710.857342187688 301.84914354980776) rotate(0 116.9154052734375 151.9057059331646)">
    <path
      d="M32 0 M32 0 C86.75 0.63, 143.25 1.22, 201.83 0 M201.83 0 C222.41 1.5, 233.59 9.91, 233.83 32 M233.83 32 C233.68 113.02, 231.81 198.03, 233.83 271.81 M233.83 271.81 C235.59 293.46, 224.04 304.06, 201.83 303.81 M201.83 303.81 C151.32 305.16, 101.32 305.29, 32 303.81 M32 303.81 C12.63 301.94, -0.87 291.83, 0 271.81 M0 271.81 C-2.58 184.76, -0.99 97.79, 0 32 M0 32 C-0.01 12.46, 11.59 1.81, 32 0"
      stroke="#58a6ff" stroke-width="1.5" fill="none" stroke-dasharray="8 9"></path>
  </g>
  <g transform="translate(746.863763974293 432.02443127887614) rotate(0 84.57948897220194 11.39630126953125)"><text
      x="0" y="0" font-family="Virgil, Segoe UI Emoji" font-size="18.993835449218732px" fill="#58a6ff"
      text-anchor="start" style="white-space: pre;" direction="ltr" dominant-baseline="text-before-edge">Backend /
      Devops</text></g>
  <g stroke-linecap="round"
    transform="translate(1177.6581128349526 125.06596618273855) rotate(0 145.46621704101562 261.1705627441406)">
    <path
      d="M32 0 M32 0 C99.14 -1.69, 169.13 -2.49, 258.93 0 M32 0 C77.42 0.19, 123.15 -0.5, 258.93 0 M258.93 0 C278.77 -0.5, 290.02 9.36, 290.93 32 M258.93 0 C279.94 0.52, 289.26 11.68, 290.93 32 M290.93 32 C289.19 176.15, 289.38 321.83, 290.93 490.34 M290.93 32 C289.28 204.62, 289.4 378.33, 290.93 490.34 M290.93 490.34 C289.76 512.76, 278.9 523.28, 258.93 522.34 M290.93 490.34 C292.44 512.43, 278.5 523.22, 258.93 522.34 M258.93 522.34 C211.34 523.37, 166.4 522.04, 32 522.34 M258.93 522.34 C205.83 524.16, 150.97 524.78, 32 522.34 M32 522.34 C9 521.96, -1.1 510.11, 0 490.34 M32 522.34 C9.2 522.51, 0.9 510.2, 0 490.34 M0 490.34 C0.84 346.39, 0.86 201.77, 0 32 M0 490.34 C-0.37 347.17, 0.47 204.35, 0 32 M0 32 C-0.4 8.84, 10.9 1.58, 32 0 M0 32 C1.59 8.72, 12.24 -1.33, 32 0"
      stroke="#58a6ff" stroke-width="1" fill="none"></path>
  </g>
  <g stroke-linecap="round">
    <g transform="translate(1000.6277173271402 258.134691768676) rotate(0 79.92140971608455 -0.10825503654780277)">
      <path d="M-1.01 0.11 C25.61 -0.14, 134.07 -0.32, 160.85 -0.32" stroke="#58a6ff" stroke-width="1.5" fill="none"
        stroke-dasharray="8 9"></path>
    </g>
  </g>
  <mask></mask>
  <g stroke-linecap="round">
    <g transform="translate(1000.9313940973954 496.0693805604094) rotate(0 80.25618588142106 -0.5279780846089466)">
      <path d="M0.11 -0.01 C26.65 -0.02, 133.62 -1.04, 160.41 -1.04" stroke="#58a6ff" stroke-width="1.5" fill="none"
        stroke-dasharray="8 9"></path>
    </g>
  </g>
  <mask></mask>
  <g transform="translate(1038.392609905265 201.05107360461355) rotate(0 41.72996520996094 12)"><text x="0" y="0"
      font-family="Virgil, Segoe UI Emoji" font-size="20px" fill="#58a6ff" text-anchor="start" style="white-space: pre;"
      direction="ltr" dominant-baseline="text-before-edge">Frontend</text></g>
  <g transform="translate(1040.8836987724526 371.2197747764885) rotate(0 39.65997314453125 12)"><text x="0" y="0"
      font-family="Virgil, Segoe UI Emoji" font-size="20px" fill="#58a6ff" text-anchor="start" style="white-space: pre;"
      direction="ltr" dominant-baseline="text-before-edge">Backend</text></g>
  <g transform="translate(1031.9126904716713 577.0823236046135) rotate(0 49.439964294433594 12)"><text x="0" y="0"
      font-family="Virgil, Segoe UI Emoji" font-size="20px" fill="#58a6ff" text-anchor="start" style="white-space: pre;"
      direction="ltr" dominant-baseline="text-before-edge">Database</text></g>
  <g transform="translate(1260.16970951464 142.77653747180105) rotate(0 63.24993133544922 12)"><text x="0" y="0"
      font-family="Virgil, Segoe UI Emoji" font-size="20px" fill="#58a6ff" text-anchor="start" style="white-space: pre;"
      direction="ltr" dominant-baseline="text-before-edge">Microservices</text></g>
  <g stroke-linecap="round"
    transform="translate(1209.3600171318276 192.3703485069573) rotate(0 116.9154052734375 39.6729736328125)">
    <path
      d="M19.84 0 M19.84 0 C58.13 0.06, 97.15 -1.55, 213.99 0 M213.99 0 C225.72 -0.5, 232.92 5.31, 233.83 19.84 M233.83 19.84 C234.8 31.48, 232.96 44.28, 233.83 59.51 M233.83 59.51 C232.33 71.86, 226.12 80.84, 213.99 79.35 M213.99 79.35 C141.45 78.5, 68.64 81.4, 19.84 79.35 M19.84 79.35 C5.44 80.43, -1.36 73.67, 0 59.51 M0 59.51 C0.63 43.07, -0.25 30.46, 0 19.84 M0 19.84 C-1.63 7.85, 6.46 -0.31, 19.84 0"
      stroke="#58a6ff" stroke-width="1.5" fill="none" stroke-dasharray="8 9"></path>
  </g>
  <g transform="translate(1281.6270459404213 213.63398986437917) rotate(0 41.72996520996094 12)"><text x="0" y="0"
      font-family="Virgil, Segoe UI Emoji" font-size="20px" fill="#58a6ff" text-anchor="start" style="white-space: pre;"
      direction="ltr" dominant-baseline="text-before-edge">Frontend</text></g>
  <g stroke-linecap="round"
    transform="translate(1207.0642195731407 290.31094604113696) rotate(0 116.9154052734375 35.74400329589844)">
    <path
      d="M17.87 0 M17.87 0 C73.31 -1.61, 129.35 -0.27, 215.96 0 M215.96 0 C226.96 -1.3, 233.55 6.41, 233.83 17.87 M233.83 17.87 C233.03 27.76, 232.48 33.24, 233.83 53.62 M233.83 53.62 C232.74 67.03, 229.42 69.79, 215.96 71.49 M215.96 71.49 C148.67 70.93, 77.72 70.85, 17.87 71.49 M17.87 71.49 C4.59 72.43, 1.32 66.19, 0 53.62 M0 53.62 C-0.25 45.61, -1.76 38.91, 0 17.87 M0 17.87 C-0.15 5.65, 4.69 -0.75, 17.87 0"
      stroke="#58a6ff" stroke-width="1.5" fill="none" stroke-dasharray="8 9"></path>
  </g>
  <g transform="translate(1241.9918471366173 317.36934142687915) rotate(0 84.63838195800781 10.800000000000011)"><text
      x="0" y="0" font-family="Virgil, Segoe UI Emoji" font-size="18.993835449218732px" fill="#58a6ff"
      text-anchor="start" style="white-space: pre;" direction="ltr"
      dominant-baseline="text-before-edge">API/BFF/GraphQL</text></g>
  <g stroke-linecap="round"
    transform="translate(1211.0044369142502 383.82808166125415) rotate(0 31.3524169921875 116.85186767578125)">
    <path
      d="M15.68 0 M15.68 0 C22.15 -1.51, 30.2 1.21, 47.03 0 M47.03 0 C59.43 -0.14, 64.27 5.12, 62.7 15.68 M62.7 15.68 C65.24 63.46, 65.55 115.04, 62.7 218.03 M62.7 218.03 C60.76 228.27, 56.93 233.6, 47.03 233.7 M47.03 233.7 C40.93 235.13, 34.29 233.53, 15.68 233.7 M15.68 233.7 C3.98 235.25, 1.7 229.12, 0 218.03 M0 218.03 C-0.57 166.21, -0.31 115.61, 0 15.68 M0 15.68 C-1.39 6.56, 5.48 1.46, 15.68 0"
      stroke="#58a6ff" stroke-width="1.5" fill="none" stroke-dasharray="8 9"></path>
  </g>
  <g stroke-linecap="round"
    transform="translate(1292.0748714845627 382.3846612510979) rotate(0 31.3524169921875 116.85186767578125)">
    <path
      d="M15.68 0 M15.68 0 C26.19 1.12, 33.91 -1.6, 47.03 0 M47.03 0 C55.5 -0.08, 63.88 4.5, 62.7 15.68 M62.7 15.68 C64.76 89.85, 64.03 167.95, 62.7 218.03 M62.7 218.03 C63.13 227.15, 58.85 234.18, 47.03 233.7 M47.03 233.7 C36.77 232.36, 23.6 235.03, 15.68 233.7 M15.68 233.7 C4.25 232.89, -0.95 229.07, 0 218.03 M0 218.03 C2.65 138.83, 0.75 62.48, 0 15.68 M0 15.68 C-0.9 6.12, 3.25 1.69, 15.68 0"
      stroke="#58a6ff" stroke-width="1.5" fill="none" stroke-dasharray="8 9"></path>
  </g>
  <g stroke-linecap="round"
    transform="translate(1377.0748714845627 383.3846612510979) rotate(0 31.3524169921875 116.85186767578125)">
    <path
      d="M15.68 0 M15.68 0 C26.23 1.31, 37.01 -1.89, 47.03 0 M47.03 0 C59.02 -1.08, 62.87 6.81, 62.7 15.68 M62.7 15.68 C62.49 68.02, 60.31 117.76, 62.7 218.03 M62.7 218.03 C63.8 227.06, 56.44 234.05, 47.03 233.7 M47.03 233.7 C40.72 232.31, 31.11 232.42, 15.68 233.7 M15.68 233.7 C6.05 232.83, 1.77 227.42, 0 218.03 M0 218.03 C-0.49 144.15, -0.11 69.29, 0 15.68 M0 15.68 C1.8 5.55, 5.36 1.95, 15.68 0"
      stroke="#58a6ff" stroke-width="1.5" fill="none" stroke-dasharray="8 9"></path>
  </g>
  <g transform="translate(1165.1520199220627 489.0869317589104) rotate(270.3928740768649 76.59992218017578 12)"><text
      x="0" y="0" font-family="Virgil, Segoe UI Emoji" font-size="20px" fill="#58a6ff" text-anchor="start"
      style="white-space: pre;" direction="ltr" dominant-baseline="text-before-edge">Product service</text></g>
  <g transform="translate(1248.2383312628367 487.6365604375286) rotate(270.3928740768649 78.1999282836914 12)"><text
      x="0" y="0" font-family="Virgil, Segoe UI Emoji" font-size="20px" fill="#58a6ff" text-anchor="start"
      style="white-space: pre;" direction="ltr" dominant-baseline="text-before-edge">Payment service</text></g>
  <g transform="translate(1334.7961433403461 497.2463745169613) rotate(270.3928740768649 70.58993530273438 12)"><text
      x="0" y="0" font-family="Virgil, Segoe UI Emoji" font-size="20px" fill="#58a6ff" text-anchor="start"
      style="white-space: pre;" direction="ltr" dominant-baseline="text-before-edge">Search service</text></g>
  <g stroke-linecap="round"
    transform="translate(1669.109913462587 129.06596618273855) rotate(0 145.46621704101562 261.1705627441406)">
    <path
      d="M32 0 M32 0 C91.54 0.27, 151.8 1.32, 258.93 0 M32 0 C114.38 0.77, 198.38 0.48, 258.93 0 M258.93 0 C279.29 1.65, 290.72 10.47, 290.93 32 M258.93 0 C279.84 0.05, 290.05 12.71, 290.93 32 M290.93 32 C289.51 164.04, 289.05 294.38, 290.93 490.34 M290.93 32 C291.72 127.6, 291.69 223.06, 290.93 490.34 M290.93 490.34 C291.41 513.23, 279.11 522.29, 258.93 522.34 M290.93 490.34 C289.15 511.2, 281.29 520.78, 258.93 522.34 M258.93 522.34 C198.59 519.84, 136.57 519.67, 32 522.34 M258.93 522.34 C213.02 523.03, 168.03 523.2, 32 522.34 M32 522.34 C9.68 521.09, -1.76 512.46, 0 490.34 M32 522.34 C10.77 523.75, 0.13 512.74, 0 490.34 M0 490.34 C-0.16 383.43, -0.5 276.38, 0 32 M0 490.34 C2.2 335.12, 1.46 180.09, 0 32 M0 32 C-1.32 9.04, 12.51 0.02, 32 0 M0 32 C2.21 11.3, 10.06 1.68, 32 0"
      stroke="#58a6ff" stroke-width="1" fill="none"></path>
  </g>
  <g stroke-linecap="round">
    <g transform="translate(1491.950001353212 262.134691768676) rotate(0 81.16768633536992 0.5200964170461759)">
      <path d="M0.32 0.07 C27.41 0.25, 135.13 1.11, 162.02 0.95" stroke="#58a6ff" stroke-width="1.5" fill="none"
        stroke-dasharray="8 9"></path>
    </g>
  </g>
  <mask></mask>
  <g stroke-linecap="round">
    <g transform="translate(1492.2536781234671 500.0693805604094) rotate(0 80.87487540431312 1.054426094728683)">
      <path d="M0.07 1.15 C27.04 1.25, 135.05 1.17, 161.68 0.92" stroke="#58a6ff" stroke-width="1.5" fill="none"
        stroke-dasharray="8 9"></path>
    </g>
  </g>
  <mask></mask>
  <g transform="translate(1529.714893931337 205.05107360461355) rotate(0 41.72996520996094 12)"><text x="0" y="0"
      font-family="Virgil, Segoe UI Emoji" font-size="20px" fill="#58a6ff" text-anchor="start" style="white-space: pre;"
      direction="ltr" dominant-baseline="text-before-edge">Frontend</text></g>
  <g transform="translate(1532.2059827985245 375.2197747764885) rotate(0 39.65997314453125 12)"><text x="0" y="0"
      font-family="Virgil, Segoe UI Emoji" font-size="20px" fill="#58a6ff" text-anchor="start" style="white-space: pre;"
      direction="ltr" dominant-baseline="text-before-edge">Backend</text></g>
  <g transform="translate(1523.2349744977432 581.0823236046135) rotate(0 49.439964294433594 12)"><text x="0" y="0"
      font-family="Virgil, Segoe UI Emoji" font-size="20px" fill="#58a6ff" text-anchor="start" style="white-space: pre;"
      direction="ltr" dominant-baseline="text-before-edge">Database</text></g>
  <g transform="translate(1738.831335515702 141.28599136341398) rotate(0 75.98992919921875 12)"><text x="0" y="0"
      font-family="Virgil, Segoe UI Emoji" font-size="20px" fill="#58a6ff" text-anchor="start" style="white-space: pre;"
      direction="ltr" dominant-baseline="text-before-edge">Micro frontends</text></g>
  <g stroke-linecap="round"
    transform="translate(1701.0405559261294 210.35534658748824) rotate(0 30.8961181640625 42.36639404296875)">
    <path
      d="M15.45 0 M15.45 0 C25.61 0.05, 39.56 -0.62, 46.34 0 M46.34 0 C55.67 1.65, 61.58 4.95, 61.79 15.45 M61.79 15.45 C63.58 30.33, 60.74 46.02, 61.79 69.28 M61.79 69.28 C61.19 81.19, 55.08 84.3, 46.34 84.73 M46.34 84.73 C39.86 85.74, 33.33 86.01, 15.45 84.73 M15.45 84.73 C5.63 86.29, -1.15 79.53, 0 69.28 M0 69.28 C-1.25 56.67, 1.71 43.64, 0 15.45 M0 15.45 C0.73 4.11, 4.64 -1.23, 15.45 0"
      stroke="#58a6ff" stroke-width="1.5" fill="none" stroke-dasharray="8 9"></path>
  </g>
  <g stroke-linecap="round"
    transform="translate(1698.3865035992126 310.6449971665637) rotate(0 116.9154052734375 27.627337353873543)">
    <path
      d="M13.81 0 M13.81 0 C68.54 -0.59, 119.64 1.54, 220.02 0 M220.02 0 C229.02 -0.2, 233.46 4.65, 233.83 13.81 M233.83 13.81 C233.01 21.31, 233.47 29.86, 233.83 41.44 M233.83 41.44 C232.27 50.22, 227.39 55.99, 220.02 55.25 M220.02 55.25 C148.29 57.05, 77.26 57.42, 13.81 55.25 M13.81 55.25 C3.45 55.2, -1.55 50.24, 0 41.44 M0 41.44 C1.79 30.26, 0.92 21.37, 0 13.81 M0 13.81 C-0.51 3.37, 2.61 1.16, 13.81 0"
      stroke="#58a6ff" stroke-width="1.5" fill="none" stroke-dasharray="8 9"></path>
  </g>
  <g transform="translate(1733.3141311626891 329.36934142687915) rotate(0 84.63838195800781 10.800000000000011)"><text
      x="0" y="0" font-family="Virgil, Segoe UI Emoji" font-size="18.993835449218732px" fill="#58a6ff"
      text-anchor="start" style="white-space: pre;" direction="ltr"
      dominant-baseline="text-before-edge">API/BFF/GraphQL</text></g>
  <g stroke-linecap="round"
    transform="translate(1702.3267209403216 387.82808166125415) rotate(0 31.3524169921875 116.85186767578125)">
    <path
      d="M15.68 0 M15.68 0 C23.98 1.77, 34.02 -0.08, 47.03 0 M47.03 0 C57.11 0.04, 61.93 7, 62.7 15.68 M62.7 15.68 C61.2 75.08, 60.34 131.22, 62.7 218.03 M62.7 218.03 C60.87 229.22, 58.42 233.65, 47.03 233.7 M47.03 233.7 C36.76 235.43, 24.37 233.83, 15.68 233.7 M15.68 233.7 C3.68 233.29, 0.89 227.12, 0 218.03 M0 218.03 C-0.8 162.73, -1.9 108.2, 0 15.68 M0 15.68 C-1.99 6.38, 5.69 -1.01, 15.68 0"
      stroke="#58a6ff" stroke-width="1.5" fill="none" stroke-dasharray="8 9"></path>
  </g>
  <g stroke-linecap="round"
    transform="translate(1783.397155510634 386.3846612510979) rotate(0 31.3524169921875 116.85186767578125)">
    <path
      d="M15.68 0 M15.68 0 C29.16 -0.06, 39.15 -0.22, 47.03 0 M47.03 0 C57.52 -0.77, 64.48 4.95, 62.7 15.68 M62.7 15.68 C64.39 64.22, 62.57 113.91, 62.7 218.03 M62.7 218.03 C63.44 229.42, 57.43 234.56, 47.03 233.7 M47.03 233.7 C39.42 232.63, 28.65 232.23, 15.68 233.7 M15.68 233.7 C4.82 234.59, -1.36 227.85, 0 218.03 M0 218.03 C0.58 140.67, 0.41 62.43, 0 15.68 M0 15.68 C1.16 5.69, 4.21 0.56, 15.68 0"
      stroke="#58a6ff" stroke-width="1.5" fill="none" stroke-dasharray="8 9"></path>
  </g>
  <g stroke-linecap="round"
    transform="translate(1868.397155510634 387.3846612510979) rotate(0 31.3524169921875 116.85186767578125)">
    <path
      d="M15.68 0 M15.68 0 C23.69 -0.46, 31.76 -0.21, 47.03 0 M47.03 0 C56.71 1.78, 62.43 4.16, 62.7 15.68 M62.7 15.68 C60.76 78.81, 60.51 143.39, 62.7 218.03 M62.7 218.03 C63.65 228.42, 58.34 233.55, 47.03 233.7 M47.03 233.7 C34.7 233.9, 23.13 233.54, 15.68 233.7 M15.68 233.7 C6.11 232.35, -0.63 230.08, 0 218.03 M0 218.03 C-1.11 173.07, -2.45 131.36, 0 15.68 M0 15.68 C0.46 4.21, 5.79 0.13, 15.68 0"
      stroke="#58a6ff" stroke-width="1.5" fill="none" stroke-dasharray="8 9"></path>
  </g>
  <g transform="translate(1656.474303948134 493.0869317589104) rotate(270.3928740768649 76.59992218017578 12)"><text
      x="0" y="0" font-family="Virgil, Segoe UI Emoji" font-size="20px" fill="#58a6ff" text-anchor="start"
      style="white-space: pre;" direction="ltr" dominant-baseline="text-before-edge">Product service</text></g>
  <g transform="translate(1739.5606152889081 491.6365604375286) rotate(270.3928740768649 78.1999282836914 12)"><text
      x="0" y="0" font-family="Virgil, Segoe UI Emoji" font-size="20px" fill="#58a6ff" text-anchor="start"
      style="white-space: pre;" direction="ltr" dominant-baseline="text-before-edge">Payment service</text></g>
  <g transform="translate(1826.118427366418 501.2463745169613) rotate(270.3928740768649 70.58993530273438 12)"><text
      x="0" y="0" font-family="Virgil, Segoe UI Emoji" font-size="20px" fill="#58a6ff" text-anchor="start"
      style="white-space: pre;" direction="ltr" dominant-baseline="text-before-edge">Search service</text></g>
  <g
    transform="translate(1695.9610851113307 241.4389954346769) rotate(269.81976784317 34.5256797937991 9.619419099889342)">
    <text x="0" y="0" font-family="Virgil, Segoe UI Emoji" font-size="16.03236516648223px" fill="#58a6ff"
      text-anchor="start" style="white-space: pre;" direction="ltr" dominant-baseline="text-before-edge">Team A </text>
  </g>
  <g stroke-linecap="round"
    transform="translate(1783.8672092381034 208.07414432220256) rotate(0 30.8961181640625 45.12835693359375)">
    <path
      d="M15.45 0 M15.45 0 C23.65 -0.02, 32.68 -0.57, 46.34 0 M46.34 0 C55.65 -1.53, 61.98 4.49, 61.79 15.45 M61.79 15.45 C60.99 31.6, 61.22 45.19, 61.79 74.81 M61.79 74.81 C62.32 85.24, 57.15 89.43, 46.34 90.26 M46.34 90.26 C34.68 92.07, 21.75 89.42, 15.45 90.26 M15.45 90.26 C4.68 89.1, -0.57 85.65, 0 74.81 M0 74.81 C1.56 61.58, 1.11 43.58, 0 15.45 M0 15.45 C0.66 3.7, 6.71 -1.49, 15.45 0"
      stroke="#58a6ff" stroke-width="1.5" fill="none" stroke-dasharray="8 9"></path>
  </g>
  <g stroke-linecap="round"
    transform="translate(1864.949303721674 210.883295329908) rotate(0 30.8961181640625 42.36639404296875)">
    <path
      d="M15.45 0 M15.45 0 C24.54 -0.98, 31.02 -1.89, 46.34 0 M46.34 0 C57.75 1.42, 62.45 3.22, 61.79 15.45 M61.79 15.45 C59.91 33.63, 61.54 50.93, 61.79 69.28 M61.79 69.28 C61.35 79.72, 56.94 86.17, 46.34 84.73 M46.34 84.73 C35.83 83.43, 23.58 82.87, 15.45 84.73 M15.45 84.73 C5.15 86.55, -1.39 79.2, 0 69.28 M0 69.28 C-0.92 48.85, -0.33 29.98, 0 15.45 M0 15.45 C1.45 3.6, 5.73 -1.45, 15.45 0"
      stroke="#58a6ff" stroke-width="1.5" fill="none" stroke-dasharray="8 9"></path>
  </g>
  <g
    transform="translate(1781.8053651913401 244.1079715493984) rotate(269.81976784317 30.06540218784403 9.303379333374068)">
    <text x="0" y="0" font-family="Virgil, Segoe UI Emoji" font-size="15.505632222290137px" fill="#58a6ff"
      text-anchor="start" style="white-space: pre;" direction="ltr" dominant-baseline="text-before-edge">Team B</text>
  </g>
  <g
    transform="translate(1866.1417818072691 242.36963757825933) rotate(269.81976784317 29.723168002368766 9.398636622622064)">
    <text x="0" y="0" font-family="Virgil, Segoe UI Emoji" font-size="15.664394371036776px" fill="#58a6ff"
      text-anchor="start" style="white-space: pre;" direction="ltr" dominant-baseline="text-before-edge">Team C</text>
  </g>
  <g transform="translate(1702.8959164064377 177.46350896523072) rotate(0 29.589981079101562 12)"><text x="0" y="0"
      font-family="Virgil, Segoe UI Emoji" font-size="20px" fill="#58a6ff" text-anchor="start" style="white-space: pre;"
      direction="ltr" dominant-baseline="text-before-edge">React</text></g>
  <g transform="translate(1795.3226839253134 178.79701642433534) rotate(0 16.319984436035156 12)"><text x="0" y="0"
      font-family="Virgil, Segoe UI Emoji" font-size="20px" fill="#58a6ff" text-anchor="start" style="white-space: pre;"
      direction="ltr" dominant-baseline="text-before-edge">Vue</text></g>
  <g transform="translate(1855.4099163454025 178.44679901693135) rotate(0 35.51997375488281 12)"><text x="0" y="0"
      font-family="Virgil, Segoe UI Emoji" font-size="20px" fill="#58a6ff" text-anchor="start" style="white-space: pre;"
      direction="ltr" dominant-baseline="text-before-edge">Angular</text></g>
  <g stroke-linecap="round">
    <g transform="translate(404.84591173077786 46.125541371952465) rotate(0 -191.9598040746284 23.460366591774182)">
      <path
        d="M-0.37 0.76 C-64.01 7.95, -318.8 37.71, -382.56 45.65 M-4.01 -1.29 C-67.75 7.42, -320.26 39.35, -383.55 48.21"
        stroke="#58a6ff" stroke-width="1" fill="none"></path>
    </g>
    <g transform="translate(404.84591173077786 46.125541371952465) rotate(0 -191.9598040746284 23.460366591774182)">
      <path
        d="M-355.87 37.62 C-366.83 40.79, -370.24 43.21, -384.91 45.3 M-357.55 33.45 C-368.58 40.93, -375.92 43.33, -383.28 49.73"
        stroke="#58a6ff" stroke-width="1" fill="none"></path>
    </g>
    <g transform="translate(404.84591173077786 46.125541371952465) rotate(0 -191.9598040746284 23.460366591774182)">
      <path
        d="M-353.17 57.96 C-365.24 55.53, -369.39 52.36, -384.91 45.3 M-354.85 53.8 C-367.07 53.49, -375.44 48.12, -383.28 49.73"
        stroke="#58a6ff" stroke-width="1" fill="none"></path>
    </g>
  </g>
  <mask></mask>
  <g transform="translate(416.8033158799159 10) rotate(0 251.79771423339844 25.200000000000003)"><text x="0" y="0"
      font-family="Virgil, Segoe UI Emoji" font-size="42.792255121017085px" fill="#58a6ff" text-anchor="start"
      style="white-space: pre;" direction="ltr" dominant-baseline="text-before-edge">Open to new challenges </text></g>
</svg>
